<?xml version="1.0" encoding="UTF-8"?>
<svg width="569px" height="309px" viewBox="0 0 569 309" version="1.1" xmlns="http://www.w3.org/2000/svg" xmlns:xlink="http://www.w3.org/1999/xlink">
    <!-- Generator: Sketch 44.1 (41455) - http://www.bohemiancoding.com/sketch -->
    <title>placeholder</title>
    <desc>Created with Sketch.</desc>
    <defs></defs>
    <g id="Page-1" stroke="none" stroke-width="1" fill="none" fill-rule="evenodd">
        <g id="placeholder" fill-rule="nonzero">
            <path d="M214.606445,37.5917969 C214.606445,37.1933574 214.65039,36.8491225 214.738281,36.559082 C214.826172,36.2690415 214.972655,36.0200206 215.177734,35.8120117 C215.382814,35.6040029 215.62451,35.4355475 215.902832,35.3066406 C216.181154,35.1777337 216.541502,35.0751957 216.983887,34.9990234 C217.426272,34.9228512 217.893552,34.8715822 218.385742,34.8452148 C218.877932,34.8188475 219.475582,34.8056641 220.178711,34.8056641 L220.178711,34.1728516 C220.178711,33.165034 219.680669,32.6611328 218.68457,32.6611328 C218.362303,32.6611328 218.019533,32.702148 217.65625,32.7841797 C217.292967,32.8662113 217.023438,32.937988 216.847656,32.9995117 C216.671874,33.0610355 216.434572,33.1533197 216.135742,33.2763672 C216.106445,33.288086 216.075684,33.2983398 216.043457,33.3071289 C216.01123,33.315918 215.980469,33.3217773 215.951172,33.324707 C215.921875,33.3276367 215.892578,33.3291016 215.863281,33.3291016 C215.646483,33.3291016 215.461915,33.2353525 215.30957,33.0478516 C215.157226,32.8603506 215.081055,32.6523449 215.081055,32.4238281 C215.081055,32.277343 215.116211,32.1440436 215.186523,32.0239258 C215.256836,31.903808 215.365234,31.8085941 215.511719,31.7382812 C216.48438,31.2753883 217.583002,31.0439453 218.807617,31.0439453 C219.364261,31.0439453 219.860838,31.106933 220.297363,31.2329102 C220.733889,31.3588873 221.120604,31.5566393 221.45752,31.8261719 C221.794435,32.0957045 222.05371,32.4604469 222.235352,32.9204102 C222.416993,33.3803734 222.507812,33.9267546 222.507812,34.5595703 L222.507812,38.7871094 C222.507812,39.1738301 222.396485,39.47412 222.173828,39.6879883 C221.951171,39.9018565 221.690431,40.0087891 221.391602,40.0087891 C221.198241,40.0087891 221.013673,39.9619145 220.837891,39.8681641 C220.45117,39.6572255 220.257812,39.2939479 220.257812,38.7783203 L220.257812,38.5322266 C220.058593,39.0419947 219.726077,39.4316393 219.260254,39.7011719 C218.794431,39.9707045 218.24512,40.1054688 217.612305,40.1054688 C216.739253,40.1054688 216.020022,39.8798851 215.45459,39.4287109 C214.889157,38.9775368 214.606445,38.3652382 214.606445,37.5917969 Z M218.016602,38.6552734 C218.280275,38.6552734 218.53955,38.5981451 218.794434,38.4838867 C219.049318,38.3696283 219.279296,38.2114268 219.484375,38.0092773 C219.689454,37.8071279 219.85498,37.5551773 219.980957,37.253418 C220.106934,36.9516586 220.169922,36.6308611 220.169922,36.2910156 L220.169922,36.0009766 C219.789061,36.0009766 219.471193,36.0039062 219.216309,36.0097656 C218.961425,36.015625 218.703615,36.0302733 218.442871,36.0537109 C218.182128,36.0771486 217.971192,36.1093748 217.810059,36.1503906 C217.648925,36.1914065 217.495118,36.2456051 217.348633,36.3129883 C217.202148,36.3803714 217.089356,36.4638667 217.010254,36.5634766 C216.931152,36.6630864 216.869629,36.7817376 216.825684,36.9194336 C216.781738,37.0571296 216.759766,37.216796 216.759766,37.3984375 C216.759766,37.7910176 216.872557,38.0986317 217.098145,38.3212891 C217.323732,38.5439464 217.629881,38.6552734 218.016602,38.6552734 Z M226.017969,40 C226.422268,40 226.732811,39.8769544 226.949609,39.6308594 C227.166407,39.3847644 227.274805,39.0302758 227.274805,38.5673828 L227.274805,34.9726562 C227.274805,34.2871059 227.472557,33.7275412 227.868066,33.2939453 C228.263576,32.8603494 228.736716,32.6435547 229.2875,32.6435547 C229.744534,32.6435547 230.120995,32.7973617 230.416895,33.1049805 C230.712794,33.4125992 230.860742,33.8535128 230.860742,34.4277344 L230.860742,38.5673828 C230.860742,39.0302758 230.96328,39.3847644 231.168359,39.6308594 C231.373439,39.8769544 231.666404,40 232.047266,40 C232.451565,40 232.762108,39.8769544 232.978906,39.6308594 C233.195704,39.3847644 233.304102,39.0302758 233.304102,38.5673828 L233.304102,34.4101562 C233.304102,33.3261665 233.01553,32.4926787 232.438379,31.909668 C231.861228,31.3266572 231.130278,31.0351562 230.245508,31.0351562 C228.786516,31.0351562 227.793362,31.5654244 227.266016,32.6259766 L227.266016,32.4150391 C227.266016,32.0107402 227.162013,31.7031261 226.954004,31.4921875 C226.745995,31.2812489 226.451564,31.1757812 226.070703,31.1757812 C225.678123,31.1757812 225.373439,31.2812489 225.156641,31.4921875 C224.939843,31.7031261 224.831445,32.0136698 224.831445,32.4238281 L224.831445,38.5673828 C224.831445,39.0302758 224.933983,39.3847644 225.139063,39.6308594 C225.344142,39.8769544 225.637107,40 226.017969,40 Z M239.837695,38.4970703 C240.546683,38.4970703 241.094529,38.2407252 241.48125,37.7280273 C241.867971,37.2153295 242.061328,36.5019577 242.061328,35.5878906 C242.061328,34.6503859 241.869436,33.9252955 241.485645,33.4125977 C241.101854,32.8998998 240.552543,32.6435547 239.837695,32.6435547 C239.122848,32.6435547 238.573537,32.8998998 238.189746,33.4125977 C237.805955,33.9252955 237.614063,34.6503859 237.614063,35.5878906 C237.614063,36.4960983 237.80742,37.2080052 238.194141,37.7236328 C238.580861,38.2392604 239.128707,38.4970703 239.837695,38.4970703 Z M239.837695,40.1054688 C239.064254,40.1054688 238.37139,39.9838879 237.759082,39.7407227 C237.146774,39.4975574 236.653127,39.166506 236.278125,38.7475586 C235.903123,38.3286112 235.618946,37.8510769 235.425586,37.3149414 C235.232226,36.7788059 235.135547,36.2031281 235.135547,35.5878906 C235.135547,34.9785126 235.230761,34.4042996 235.421191,33.8652344 C235.611622,33.3261692 235.894334,32.8442404 236.269336,32.4194336 C236.644338,31.9946268 237.137985,31.6577161 237.750293,31.4086914 C238.362601,31.1596667 239.058395,31.0351562 239.837695,31.0351562 C240.599418,31.0351562 241.282028,31.1538074 241.885547,31.3911133 C242.489066,31.6284192 242.981248,31.955076 243.362109,32.3710938 C243.742971,32.7871115 244.034472,33.2675754 244.236621,33.8125 C244.438771,34.3574246 244.539844,34.9492156 244.539844,35.5878906 C244.539844,36.1855499 244.443165,36.7509739 244.249805,37.2841797 C244.056444,37.8173855 243.773732,38.2963846 243.40166,38.7211914 C243.029588,39.1459982 242.537405,39.4829089 241.925098,39.7319336 C241.31279,39.9809583 240.616996,40.1054688 239.837695,40.1054688 Z M247.645703,40 C248.050002,40 248.360546,39.8769544 248.577344,39.6308594 C248.794142,39.3847644 248.902539,39.0302758 248.902539,38.5673828 L248.902539,34.9726562 C248.902539,34.2871059 249.100291,33.7275412 249.495801,33.2939453 C249.891311,32.8603494 250.36445,32.6435547 250.915234,32.6435547 C251.372268,32.6435547 251.748729,32.7973617 252.044629,33.1049805 C252.340529,33.4125992 252.488477,33.8535128 252.488477,34.4277344 L252.488477,38.5673828 C252.488477,39.0302758 252.591015,39.3847644 252.796094,39.6308594 C253.001173,39.8769544 253.294139,40 253.675,40 C254.079299,40 254.389843,39.8769544 254.606641,39.6308594 C254.823439,39.3847644 254.931836,39.0302758 254.931836,38.5673828 L254.931836,34.4101562 C254.931836,33.3261665 254.643265,32.4926787 254.066113,31.909668 C253.488962,31.3266572 252.758012,31.0351562 251.873242,31.0351562 C250.414251,31.0351562 249.421096,31.5654244 248.89375,32.6259766 L248.89375,32.4150391 C248.89375,32.0107402 248.789747,31.7031261 248.581738,31.4921875 C248.373729,31.2812489 248.079299,31.1757812 247.698438,31.1757812 C247.305857,31.1757812 247.001173,31.2812489 246.784375,31.4921875 C246.567577,31.7031261 246.45918,32.0136698 246.45918,32.4238281 L246.45918,38.5673828 C246.45918,39.0302758 246.561718,39.3847644 246.766797,39.6308594 C246.971876,39.8769544 247.264842,40 247.645703,40 Z M260.111914,43.0849609 L265.262305,32.7402344 C265.30918,32.6406245 265.344336,32.5410161 265.367773,32.4414062 C265.391211,32.3417964 265.40293,32.2451177 265.40293,32.1513672 C265.40293,31.8466782 265.297462,31.5947276 265.086523,31.3955078 C264.875585,31.1962881 264.626564,31.0966797 264.339453,31.0966797 C264.128515,31.0966797 263.926368,31.1596673 263.733008,31.2856445 C263.539647,31.4116217 263.381446,31.6035143 263.258398,31.8613281 L261.052344,36.2910156 L258.767188,31.8789062 C258.720312,31.7851558 258.667578,31.7016605 258.608984,31.628418 C258.55039,31.5551754 258.487403,31.4936526 258.42002,31.4438477 C258.352636,31.3940427 258.282325,31.3515627 258.209082,31.3164062 C258.135839,31.2812498 258.061133,31.2563477 257.984961,31.2416992 C257.908789,31.2270507 257.829688,31.2197266 257.747656,31.2197266 C257.442967,31.2197266 257.173439,31.3222646 256.939063,31.5273438 C256.704686,31.7324229 256.5875,31.9843735 256.5875,32.2832031 C256.5875,32.4589853 256.634375,32.6376944 256.728125,32.8193359 L259.857031,38.6816406 L258.151953,42.109375 C258.064062,42.2910165 258.020117,42.4726553 258.020117,42.6542969 C258.020117,42.9648453 258.134374,43.2255849 258.362891,43.4365234 C258.591407,43.647462 258.849217,43.7529297 259.136328,43.7529297 C259.569924,43.7529297 259.895116,43.5302757 260.111914,43.0849609 Z M268.078125,40 C268.482424,40 268.794433,39.8769544 269.01416,39.6308594 C269.233888,39.3847644 269.34375,39.0302758 269.34375,38.5673828 L269.34375,34.796875 C269.34375,34.1289029 269.525389,33.6030293 269.888672,33.2192383 C270.251955,32.8354473 270.732419,32.6435547 271.330078,32.6435547 C271.816409,32.6435547 272.195799,32.8032211 272.468262,33.1225586 C272.740724,33.4418961 272.876953,33.9091766 272.876953,34.5244141 L272.876953,38.5673828 C272.876953,39.0302758 272.982421,39.3847644 273.193359,39.6308594 C273.404298,39.8769544 273.700193,40 274.081055,40 C274.479494,40 274.785643,39.8769544 274.999512,39.6308594 C275.21338,39.3847644 275.320313,39.0302758 275.320313,38.5673828 L275.320313,35.0078125 C275.320313,34.2695276 275.509275,33.6909201 275.887207,33.2719727 C276.265139,32.8530252 276.744138,32.6435547 277.324219,32.6435547 C277.798831,32.6435547 278.175292,32.7973617 278.453613,33.1049805 C278.731935,33.4125992 278.871094,33.8535128 278.871094,34.4277344 L278.871094,38.5673828 C278.871094,39.0302758 278.978026,39.3847644 279.191895,39.6308594 C279.405763,39.8769544 279.703123,40 280.083984,40 C280.482424,40 280.787108,39.8769544 280.998047,39.6308594 C281.208985,39.3847644 281.314453,39.0302758 281.314453,38.5673828 L281.314453,34.3574219 C281.314453,33.2734321 281.030276,32.4501981 280.461914,31.8876953 C279.893552,31.3251925 279.149419,31.0439453 278.229492,31.0439453 C276.682609,31.0439453 275.622073,31.6826108 275.047852,32.9599609 C274.661131,31.6826108 273.720711,31.0439453 272.226563,31.0439453 C270.796868,31.0439453 269.83594,31.5976507 269.34375,32.7050781 L269.34375,32.3535156 C269.34375,31.9785137 269.229493,31.6884776 269.000977,31.4833984 C268.77246,31.2783193 268.473635,31.1757812 268.104492,31.1757812 C267.717772,31.1757812 267.418946,31.2915027 267.208008,31.5229492 C266.997069,31.7543957 266.891602,32.0986305 266.891602,32.5556641 L266.891602,38.5673828 C266.891602,39.0302758 266.99414,39.3847644 267.199219,39.6308594 C267.404298,39.8769544 267.697264,40 268.078125,40 Z M287.90957,38.4970703 C288.618558,38.4970703 289.166404,38.2407252 289.553125,37.7280273 C289.939846,37.2153295 290.133203,36.5019577 290.133203,35.5878906 C290.133203,34.6503859 289.941311,33.9252955 289.55752,33.4125977 C289.173729,32.8998998 288.624418,32.6435547 287.90957,32.6435547 C287.194723,32.6435547 286.645412,32.8998998 286.261621,33.4125977 C285.87783,33.9252955 285.685938,34.6503859 285.685938,35.5878906 C285.685938,36.4960983 285.879295,37.2080052 286.266016,37.7236328 C286.652736,38.2392604 287.200582,38.4970703 287.90957,38.4970703 Z M287.90957,40.1054688 C287.136129,40.1054688 286.443265,39.9838879 285.830957,39.7407227 C285.218649,39.4975574 284.725002,39.166506 284.35,38.7475586 C283.974998,38.3286112 283.690821,37.8510769 283.497461,37.3149414 C283.304101,36.7788059 283.207422,36.2031281 283.207422,35.5878906 C283.207422,34.9785126 283.302636,34.4042996 283.493066,33.8652344 C283.683497,33.3261692 283.966209,32.8442404 284.341211,32.4194336 C284.716213,31.9946268 285.20986,31.6577161 285.822168,31.4086914 C286.434476,31.1596667 287.13027,31.0351562 287.90957,31.0351562 C288.671293,31.0351562 289.353903,31.1538074 289.957422,31.3911133 C290.560941,31.6284192 291.053123,31.955076 291.433984,32.3710938 C291.814846,32.7871115 292.106347,33.2675754 292.308496,33.8125 C292.510646,34.3574246 292.611719,34.9492156 292.611719,35.5878906 C292.611719,36.1855499 292.51504,36.7509739 292.32168,37.2841797 C292.128319,37.8173855 291.845607,38.2963846 291.473535,38.7211914 C291.101463,39.1459982 290.60928,39.4829089 289.996973,39.7319336 C289.384665,39.9809583 288.688871,40.1054688 287.90957,40.1054688 Z M297.589648,40.1054688 C299.001765,40.1054688 299.965622,39.572271 300.48125,38.5058594 L300.48125,38.7607422 C300.48125,39.1650411 300.586718,39.4726552 300.797656,39.6835938 C301.008595,39.8945323 301.30449,40 301.685352,40 C302.077932,40 302.382616,39.8945323 302.599414,39.6835938 C302.816212,39.4726552 302.924609,39.1621114 302.924609,38.7519531 L302.924609,32.6083984 C302.924609,32.1455055 302.822071,31.7910169 302.616992,31.5449219 C302.411913,31.2988269 302.116018,31.1757812 301.729297,31.1757812 C301.330857,31.1757812 301.023243,31.2988269 300.806445,31.5449219 C300.589647,31.7910169 300.48125,32.1455055 300.48125,32.6083984 L300.48125,36.1679688 C300.48125,36.8535191 300.283498,37.4130838 299.887988,37.8466797 C299.492479,38.2802756 299.016409,38.4970703 298.459766,38.4970703 C298.002732,38.4970703 297.627736,38.3447281 297.334766,38.0400391 C297.041795,37.73535 296.895313,37.2929717 296.895313,36.7128906 L296.895313,32.6083984 C296.895313,32.1455055 296.792774,31.7910169 296.587695,31.5449219 C296.382616,31.2988269 296.08965,31.1757812 295.708789,31.1757812 C295.30449,31.1757812 294.993946,31.2988269 294.777148,31.5449219 C294.56035,31.7910169 294.451953,32.1455055 294.451953,32.6083984 L294.451953,36.7304688 C294.451953,37.8085991 294.752243,38.6406221 295.352832,39.2265625 C295.953421,39.8125029 296.699019,40.1054688 297.589648,40.1054688 Z M305.274609,39.0859375 C306.258989,39.7773472 307.433782,40.1230469 308.799023,40.1230469 C309.490433,40.1230469 310.101267,40.0219737 310.631543,39.8198242 C311.161819,39.6176748 311.585155,39.3027365 311.901563,38.875 C312.21797,38.4472635 312.376172,37.928714 312.376172,37.3193359 C312.376172,36.9384747 312.317579,36.6044936 312.200391,36.3173828 C312.083203,36.030272 311.900099,35.7827159 311.651074,35.574707 C311.40205,35.3666982 311.112013,35.1909187 310.780957,35.0473633 C310.449901,34.9038079 310.044143,34.7705084 309.563672,34.6474609 L308.262891,34.3222656 C307.829295,34.2167963 307.53047,34.1010748 307.366406,33.9750977 C307.202343,33.8491205 307.120313,33.6572279 307.120313,33.3994141 C307.120313,33.2119131 307.197948,33.0551764 307.353223,32.9291992 C307.508497,32.803222 307.693065,32.7167971 307.906934,32.6699219 C308.120802,32.6230466 308.35371,32.5996094 308.605664,32.5996094 C309.179886,32.5996094 309.877144,32.7431626 310.697461,33.0302734 C310.738477,33.0478517 310.767773,33.0595703 310.785352,33.0654297 C310.849805,33.0888673 310.912793,33.1064453 310.974316,33.1181641 C311.03584,33.1298829 311.095898,33.1357422 311.154492,33.1357422 C311.365431,33.1357422 311.535351,33.0639656 311.664258,32.9204102 C311.793165,32.7768548 311.857617,32.6083994 311.857617,32.4150391 C311.857617,32.2626946 311.815137,32.1176765 311.730176,31.9799805 C311.645214,31.8422845 311.514845,31.7324223 311.339063,31.6503906 C310.413277,31.2167947 309.461138,31 308.482617,31 C307.955271,31 307.474807,31.0556635 307.041211,31.1669922 C306.607615,31.2783209 306.232619,31.4394521 305.916211,31.6503906 C305.599803,31.8613292 305.355177,32.1264632 305.182324,32.4458008 C305.009472,32.7651383 304.923047,33.1240214 304.923047,33.5224609 C304.923047,33.7685559 304.946484,33.9912099 304.993359,34.1904297 C305.040235,34.3896494 305.100293,34.5639641 305.173535,34.7133789 C305.246778,34.8627937 305.352245,35.0019525 305.489941,35.1308594 C305.627637,35.2597663 305.766796,35.3696285 305.907422,35.4604492 C306.048048,35.55127 306.232616,35.6420894 306.461133,35.7329102 C306.68965,35.8237309 306.904979,35.899902 307.107129,35.9614258 C307.309278,36.0229495 307.565623,36.0976558 307.876172,36.1855469 L309.185742,36.5283203 C309.566603,36.6279302 309.852245,36.7597648 310.042676,36.9238281 C310.233106,37.0878914 310.32832,37.2753896 310.32832,37.4863281 C310.32832,37.6796885 310.277051,37.8481438 310.174512,37.9916992 C310.071972,38.1352546 309.932813,38.2451168 309.757031,38.3212891 C309.581249,38.3974613 309.395216,38.45166 309.198926,38.4838867 C309.002636,38.5161134 308.793165,38.5322266 308.570508,38.5322266 C308.44746,38.5322266 308.324415,38.5278321 308.201367,38.519043 C308.07832,38.5102539 307.959669,38.4941407 307.84541,38.4707031 C307.731152,38.4472655 307.628614,38.4252931 307.537793,38.4047852 C307.446972,38.3842772 307.348829,38.3535158 307.243359,38.3125 C307.13789,38.2714842 307.054395,38.2392579 306.992871,38.2158203 C306.931347,38.1923827 306.849317,38.155762 306.746777,38.105957 C306.644238,38.0561521 306.575391,38.022461 306.540234,38.0048828 C306.505078,37.9873046 306.439161,37.9506839 306.34248,37.8950195 C306.2458,37.8393552 306.191602,37.8085938 306.179883,37.8027344 C306.021679,37.7148433 305.863477,37.6708984 305.705273,37.6708984 C305.599804,37.6708984 305.497266,37.6928709 305.397656,37.7368164 C305.298046,37.7807619 305.216016,37.8408199 305.151563,37.9169922 C305.087109,37.9931644 305.03584,38.0781245 304.997754,38.171875 C304.959668,38.2656255 304.940625,38.3623042 304.940625,38.4619141 C304.940625,38.5849616 304.968457,38.7006831 305.024121,38.809082 C305.079785,38.917481 305.163281,39.0097652 305.274609,39.0859375 Z M314.260352,42.7246094 L315.191992,42.7246094 C315.30918,42.7246094 315.402929,42.6953128 315.473242,42.6367188 C315.543555,42.5781247 315.605078,42.481446 315.657813,42.3466797 L317.204688,37.9873047 C317.210547,37.9697265 317.216406,37.9462892 317.222266,37.9169922 C317.228125,37.8876952 317.231055,37.8583986 317.231055,37.8291016 C317.231055,37.6240224 317.122657,37.5126954 316.905859,37.4951172 L315.429297,37.4951172 C315.054295,37.506836 314.84043,37.6708969 314.787695,37.9873047 L314.049414,42.3466797 C314.049414,42.3583985 314.047949,42.3686523 314.04502,42.3774414 C314.04209,42.3862305 314.040625,42.3979491 314.040625,42.4125977 L314.040625,42.4521484 C314.040625,42.6279306 314.113866,42.71875 314.260352,42.7246094 Z M324.919336,39.0859375 C325.903716,39.7773472 327.078509,40.1230469 328.44375,40.1230469 C329.13516,40.1230469 329.745993,40.0219737 330.27627,39.8198242 C330.806546,39.6176748 331.229881,39.3027365 331.546289,38.875 C331.862697,38.4472635 332.020898,37.928714 332.020898,37.3193359 C332.020898,36.9384747 331.962305,36.6044936 331.845117,36.3173828 C331.727929,36.030272 331.544825,35.7827159 331.295801,35.574707 C331.046776,35.3666982 330.75674,35.1909187 330.425684,35.0473633 C330.094627,34.9038079 329.68887,34.7705084 329.208398,34.6474609 L327.907617,34.3222656 C327.474021,34.2167963 327.175196,34.1010748 327.011133,33.9750977 C326.84707,33.8491205 326.765039,33.6572279 326.765039,33.3994141 C326.765039,33.2119131 326.842675,33.0551764 326.997949,32.9291992 C327.153223,32.803222 327.337792,32.7167971 327.55166,32.6699219 C327.765528,32.6230466 327.998436,32.5996094 328.250391,32.5996094 C328.824612,32.5996094 329.521871,32.7431626 330.342188,33.0302734 C330.383203,33.0478517 330.4125,33.0595703 330.430078,33.0654297 C330.494532,33.0888673 330.557519,33.1064453 330.619043,33.1181641 C330.680567,33.1298829 330.740625,33.1357422 330.799219,33.1357422 C331.010157,33.1357422 331.180077,33.0639656 331.308984,32.9204102 C331.437891,32.7768548 331.502344,32.6083994 331.502344,32.4150391 C331.502344,32.2626946 331.459864,32.1176765 331.374902,31.9799805 C331.289941,31.8422845 331.159571,31.7324223 330.983789,31.6503906 C330.058003,31.2167947 329.105864,31 328.127344,31 C327.599997,31 327.119533,31.0556635 326.685938,31.1669922 C326.252342,31.2783209 325.877345,31.4394521 325.560938,31.6503906 C325.24453,31.8613292 324.999903,32.1264632 324.827051,32.4458008 C324.654198,32.7651383 324.567773,33.1240214 324.567773,33.5224609 C324.567773,33.7685559 324.591211,33.9912099 324.638086,34.1904297 C324.684961,34.3896494 324.745019,34.5639641 324.818262,34.7133789 C324.891504,34.8627937 324.996972,35.0019525 325.134668,35.1308594 C325.272364,35.2597663 325.411523,35.3696285 325.552148,35.4604492 C325.692774,35.55127 325.877343,35.6420894 326.105859,35.7329102 C326.334376,35.8237309 326.549706,35.899902 326.751855,35.9614258 C326.954005,36.0229495 327.21035,36.0976558 327.520898,36.1855469 L328.830469,36.5283203 C329.21133,36.6279302 329.496972,36.7597648 329.687402,36.9238281 C329.877833,37.0878914 329.973047,37.2753896 329.973047,37.4863281 C329.973047,37.6796885 329.921778,37.8481438 329.819238,37.9916992 C329.716699,38.1352546 329.57754,38.2451168 329.401758,38.3212891 C329.225976,38.3974613 329.039942,38.45166 328.843652,38.4838867 C328.647362,38.5161134 328.437892,38.5322266 328.215234,38.5322266 C328.092187,38.5322266 327.969141,38.5278321 327.846094,38.519043 C327.723046,38.5102539 327.604395,38.4941407 327.490137,38.4707031 C327.375878,38.4472655 327.27334,38.4252931 327.18252,38.4047852 C327.091699,38.3842772 326.993555,38.3535158 326.888086,38.3125 C326.782617,38.2714842 326.699121,38.2392579 326.637598,38.2158203 C326.576074,38.1923827 326.494043,38.155762 326.391504,38.105957 C326.288964,38.0561521 326.220117,38.022461 326.184961,38.0048828 C326.149805,37.9873046 326.083887,37.9506839 325.987207,37.8950195 C325.890527,37.8393552 325.836328,37.8085938 325.824609,37.8027344 C325.666405,37.7148433 325.508204,37.6708984 325.35,37.6708984 C325.244531,37.6708984 325.141993,37.6928709 325.042383,37.7368164 C324.942773,37.7807619 324.860743,37.8408199 324.796289,37.9169922 C324.731836,37.9931644 324.680567,38.0781245 324.64248,38.171875 C324.604394,38.2656255 324.585352,38.3623042 324.585352,38.4619141 C324.585352,38.5849616 324.613183,38.7006831 324.668848,38.809082 C324.724512,38.917481 324.808007,39.0097652 324.919336,39.0859375 Z M334.950977,43.2958984 C334.570115,43.2958984 334.277149,43.1743176 334.07207,42.9311523 C333.866991,42.6879871 333.764453,42.3349633 333.764453,41.8720703 L333.764453,32.6699219 C333.764453,32.2070289 333.87578,31.8422865 334.098438,31.5756836 C334.321095,31.3090807 334.62285,31.1757812 335.003711,31.1757812 C335.378713,31.1757812 335.671679,31.2797841 335.882617,31.487793 C336.093556,31.6958018 336.199023,31.9873028 336.199023,32.3623047 L336.199023,32.6083984 C336.749807,31.5595651 337.719524,31.0351562 339.108203,31.0351562 C340.256646,31.0351562 341.179489,31.4555622 341.876758,32.2963867 C342.574027,33.1372112 342.922656,34.2460869 342.922656,35.6230469 C342.922656,37.0293039 342.559379,38.1279257 341.832813,38.9189453 C341.106246,39.7099649 340.159967,40.1054688 338.993945,40.1054688 C337.66972,40.1054688 336.741018,39.6250048 336.207813,38.6640625 L336.207813,41.8720703 C336.207813,42.3349633 336.099415,42.6879871 335.882617,42.9311523 C335.665819,43.1743176 335.355275,43.2958984 334.950977,43.2958984 Z M338.413867,38.4970703 C338.78301,38.4970703 339.108202,38.4179695 339.389453,38.2597656 C339.670705,38.1015617 339.893359,37.884767 340.057422,37.609375 C340.221485,37.333983 340.343066,37.0263689 340.422168,36.6865234 C340.50127,36.346678 340.54082,35.9775411 340.54082,35.5791016 C340.54082,35.2275373 340.505664,34.8891618 340.435352,34.5639648 C340.365039,34.2387679 340.253712,33.9267593 340.101367,33.6279297 C339.949023,33.3291001 339.729298,33.0903329 339.442188,32.9116211 C339.155077,32.7329093 338.821096,32.6435547 338.440234,32.6435547 C337.643355,32.6435547 337.073537,32.8925756 336.730762,33.390625 C336.387987,33.8886744 336.216602,34.6210889 336.216602,35.5878906 C336.216602,36.4726607 336.402635,37.1787083 336.774707,37.7060547 C337.146779,38.2334011 337.69316,38.4970703 338.413867,38.4970703 Z M349.131055,38.4970703 C349.840043,38.4970703 350.387889,38.2407252 350.774609,37.7280273 C351.16133,37.2153295 351.354688,36.5019577 351.354688,35.5878906 C351.354688,34.6503859 351.162795,33.9252955 350.779004,33.4125977 C350.395213,32.8998998 349.845902,32.6435547 349.131055,32.6435547 C348.416207,32.6435547 347.866896,32.8998998 347.483105,33.4125977 C347.099315,33.9252955 346.907422,34.6503859 346.907422,35.5878906 C346.907422,36.4960983 347.100779,37.2080052 347.4875,37.7236328 C347.874221,38.2392604 348.422067,38.4970703 349.131055,38.4970703 Z M349.131055,40.1054688 C348.357613,40.1054688 347.664749,39.9838879 347.052441,39.7407227 C346.440134,39.4975574 345.946486,39.166506 345.571484,38.7475586 C345.196483,38.3286112 344.912306,37.8510769 344.718945,37.3149414 C344.525585,36.7788059 344.428906,36.2031281 344.428906,35.5878906 C344.428906,34.9785126 344.52412,34.4042996 344.714551,33.8652344 C344.904981,33.3261692 345.187693,32.8442404 345.562695,32.4194336 C345.937697,31.9946268 346.431345,31.6577161 347.043652,31.4086914 C347.65596,31.1596667 348.351754,31.0351562 349.131055,31.0351562 C349.892777,31.0351562 350.575388,31.1538074 351.178906,31.3911133 C351.782425,31.6284192 352.274607,31.955076 352.655469,32.3710938 C353.03633,32.7871115 353.327831,33.2675754 353.52998,33.8125 C353.73213,34.3574246 353.833203,34.9492156 353.833203,35.5878906 C353.833203,36.1855499 353.736524,36.7509739 353.543164,37.2841797 C353.349804,37.8173855 353.067092,38.2963846 352.69502,38.7211914 C352.322947,39.1459982 351.830765,39.4829089 351.218457,39.7319336 C350.606149,39.9809583 349.910355,40.1054688 349.131055,40.1054688 Z M356.939063,40 C357.343361,40 357.653905,39.8769544 357.870703,39.6308594 C358.087501,39.3847644 358.195898,39.0302758 358.195898,38.5673828 L358.195898,34.9726562 C358.195898,34.2871059 358.39365,33.7275412 358.78916,33.2939453 C359.18467,32.8603494 359.65781,32.6435547 360.208594,32.6435547 C360.665627,32.6435547 361.042088,32.7973617 361.337988,33.1049805 C361.633888,33.4125992 361.781836,33.8535128 361.781836,34.4277344 L361.781836,38.5673828 C361.781836,39.0302758 361.884374,39.3847644 362.089453,39.6308594 C362.294532,39.8769544 362.587498,40 362.968359,40 C363.372658,40 363.683202,39.8769544 363.9,39.6308594 C364.116798,39.3847644 364.225195,39.0302758 364.225195,38.5673828 L364.225195,34.4101562 C364.225195,33.3261665 363.936624,32.4926787 363.359473,31.909668 C362.782321,31.3266572 362.051372,31.0351562 361.166602,31.0351562 C359.70761,31.0351562 358.714456,31.5654244 358.187109,32.6259766 L358.187109,32.4150391 C358.187109,32.0107402 358.083107,31.7031261 357.875098,31.4921875 C357.667089,31.2812489 357.372658,31.1757812 356.991797,31.1757812 C356.599217,31.1757812 356.294532,31.2812489 356.077734,31.4921875 C355.860936,31.7031261 355.752539,32.0136698 355.752539,32.4238281 L355.752539,38.5673828 C355.752539,39.0302758 355.855077,39.3847644 356.060156,39.6308594 C356.265235,39.8769544 356.558201,40 356.939063,40 Z M369.756836,40.0878906 L369.941406,40.0878906 C370.140626,40.0878906 370.300292,40.0864258 370.42041,40.0834961 C370.540528,40.0805664 370.685546,40.0732422 370.855469,40.0615234 C371.025391,40.0498046 371.161621,40.0307619 371.26416,40.0043945 C371.3667,39.9780272 371.476562,39.9414065 371.59375,39.8945312 C371.710938,39.847656 371.801758,39.7905277 371.866211,39.7231445 C371.930664,39.6557614 371.984863,39.5708013 372.028809,39.4682617 C372.072754,39.3657221 372.094727,39.247071 372.094727,39.1123047 C372.094727,38.8837879 372.027344,38.6845712 371.892578,38.5146484 C371.757812,38.3447257 371.573243,38.2597656 371.338867,38.2597656 L371.286133,38.2597656 L370.706055,38.2861328 L370.600586,38.2861328 C370.219725,38.2861328 369.954591,38.146974 369.805176,37.8686523 C369.655761,37.5903306 369.581055,37.1406281 369.581055,36.5195312 L369.581055,32.8193359 L370.829102,32.8193359 C371.397464,32.8193359 371.681641,32.552737 371.681641,32.0195312 C371.681641,31.4687472 371.406253,31.1933594 370.855469,31.1933594 L369.581055,31.1933594 L369.581055,29.171875 C369.581055,28.3222614 369.270511,27.8974609 368.649414,27.8974609 C367.952145,27.8974609 367.556641,28.3193317 367.462891,29.1630859 L367.225586,31.1933594 L366.373047,31.1933594 C366.091795,31.1933594 365.882325,31.2636712 365.744629,31.4042969 C365.606933,31.5449226 365.538086,31.7353504 365.538086,31.9755859 C365.538086,32.5380887 365.825192,32.8193359 366.399414,32.8193359 L367.128906,32.8193359 L367.128906,37.0908203 C367.128906,38.0927784 367.360349,38.8413061 367.823242,39.3364258 C368.286135,39.8315454 368.93066,40.0820312 369.756836,40.0878906 Z M373.126367,37.5917969 C373.126367,37.1933574 373.170312,36.8491225 373.258203,36.559082 C373.346094,36.2690415 373.492577,36.0200206 373.697656,35.8120117 C373.902735,35.6040029 374.144432,35.4355475 374.422754,35.3066406 C374.701076,35.1777337 375.061424,35.0751957 375.503809,34.9990234 C375.946194,34.9228512 376.413474,34.8715822 376.905664,34.8452148 C377.397854,34.8188475 377.995504,34.8056641 378.698633,34.8056641 L378.698633,34.1728516 C378.698633,33.165034 378.200591,32.6611328 377.204492,32.6611328 C376.882225,32.6611328 376.539455,32.702148 376.176172,32.7841797 C375.812889,32.8662113 375.54336,32.937988 375.367578,32.9995117 C375.191796,33.0610355 374.954494,33.1533197 374.655664,33.2763672 C374.626367,33.288086 374.595606,33.2983398 374.563379,33.3071289 C374.531152,33.315918 374.500391,33.3217773 374.471094,33.324707 C374.441797,33.3276367 374.4125,33.3291016 374.383203,33.3291016 C374.166405,33.3291016 373.981837,33.2353525 373.829492,33.0478516 C373.677148,32.8603506 373.600977,32.6523449 373.600977,32.4238281 C373.600977,32.277343 373.636132,32.1440436 373.706445,32.0239258 C373.776758,31.903808 373.885156,31.8085941 374.031641,31.7382812 C375.004302,31.2753883 376.102924,31.0439453 377.327539,31.0439453 C377.884182,31.0439453 378.38076,31.106933 378.817285,31.2329102 C379.253811,31.3588873 379.640526,31.5566393 379.977441,31.8261719 C380.314357,32.0957045 380.573632,32.4604469 380.755273,32.9204102 C380.936915,33.3803734 381.027734,33.9267546 381.027734,34.5595703 L381.027734,38.7871094 C381.027734,39.1738301 380.916407,39.47412 380.69375,39.6879883 C380.471093,39.9018565 380.210353,40.0087891 379.911523,40.0087891 C379.718163,40.0087891 379.533595,39.9619145 379.357813,39.8681641 C378.971092,39.6572255 378.777734,39.2939479 378.777734,38.7783203 L378.777734,38.5322266 C378.578515,39.0419947 378.245998,39.4316393 377.780176,39.7011719 C377.314353,39.9707045 376.765042,40.1054688 376.132227,40.1054688 C375.259175,40.1054688 374.539944,39.8798851 373.974512,39.4287109 C373.409079,38.9775368 373.126367,38.3652382 373.126367,37.5917969 Z M376.536523,38.6552734 C376.800197,38.6552734 377.059471,38.5981451 377.314355,38.4838867 C377.56924,38.3696283 377.799218,38.2114268 378.004297,38.0092773 C378.209376,37.8071279 378.374902,37.5551773 378.500879,37.253418 C378.626856,36.9516586 378.689844,36.6308611 378.689844,36.2910156 L378.689844,36.0009766 C378.308982,36.0009766 377.991115,36.0039062 377.73623,36.0097656 C377.481346,36.015625 377.223536,36.0302733 376.962793,36.0537109 C376.70205,36.0771486 376.491114,36.1093748 376.32998,36.1503906 C376.168847,36.1914065 376.01504,36.2456051 375.868555,36.3129883 C375.72207,36.3803714 375.609278,36.4638667 375.530176,36.5634766 C375.451074,36.6630864 375.389551,36.7817376 375.345605,36.9194336 C375.30166,37.0571296 375.279688,37.216796 375.279688,37.3984375 C375.279688,37.7910176 375.392479,38.0986317 375.618066,38.3212891 C375.843653,38.5439464 376.149803,38.6552734 376.536523,38.6552734 Z M384.537891,40 C384.94219,40 385.252733,39.8769544 385.469531,39.6308594 C385.686329,39.3847644 385.794727,39.0302758 385.794727,38.5673828 L385.794727,34.9726562 C385.794727,34.2871059 385.992479,33.7275412 386.387988,33.2939453 C386.783498,32.8603494 387.256638,32.6435547 387.807422,32.6435547 C388.264455,32.6435547 388.640917,32.7973617 388.936816,33.1049805 C389.232716,33.4125992 389.380664,33.8535128 389.380664,34.4277344 L389.380664,38.5673828 C389.380664,39.0302758 389.483202,39.3847644 389.688281,39.6308594 C389.89336,39.8769544 390.186326,40 390.567188,40 C390.971486,40 391.28203,39.8769544 391.498828,39.6308594 C391.715626,39.3847644 391.824023,39.0302758 391.824023,38.5673828 L391.824023,34.4101562 C391.824023,33.3261665 391.535452,32.4926787 390.958301,31.909668 C390.381149,31.3266572 389.6502,31.0351562 388.76543,31.0351562 C387.306438,31.0351562 386.313284,31.5654244 385.785938,32.6259766 L385.785938,32.4150391 C385.785938,32.0107402 385.681935,31.7031261 385.473926,31.4921875 C385.265917,31.2812489 384.971486,31.1757812 384.590625,31.1757812 C384.198045,31.1757812 383.89336,31.2812489 383.676563,31.4921875 C383.459765,31.7031261 383.351367,32.0136698 383.351367,32.4238281 L383.351367,38.5673828 C383.351367,39.0302758 383.453905,39.3847644 383.658984,39.6308594 C383.864064,39.8769544 384.157029,40 384.537891,40 Z M398.287305,40.1054688 C396.904485,40.0996093 395.786821,39.6953165 394.934277,38.8925781 C394.081734,38.0898397 393.655469,36.964851 393.655469,35.5175781 C393.655469,34.6972615 393.832713,33.9501987 394.187207,33.2763672 C394.541701,32.6025357 395.061715,32.0620138 395.747266,31.6547852 C396.432816,31.2475566 397.220894,31.0439453 398.111523,31.0439453 C398.808793,31.0439453 399.424021,31.158202 399.957227,31.3867188 C400.490432,31.6152355 400.915233,31.9287089 401.231641,32.3271484 C401.548048,32.7255879 401.786816,33.1738256 401.947949,33.671875 C402.109083,34.1699244 402.192578,34.7119111 402.198438,35.2978516 C402.198438,35.5322277 402.13545,35.7167962 402.009473,35.8515625 C401.883495,35.9863288 401.700392,36.0537109 401.460156,36.0537109 L396.098828,36.0537109 C396.175,37.6298907 396.986516,38.4179688 398.533398,38.4179688 C399.295121,38.4179688 400.056832,38.1279326 400.818555,37.5478516 C400.924024,37.4599605 401.04121,37.4160156 401.170117,37.4160156 C401.269727,37.4160156 401.367871,37.4423825 401.464551,37.4951172 C401.561231,37.5478518 401.644726,37.615234 401.715039,37.6972656 C401.785352,37.7792973 401.84248,37.8745112 401.886426,37.9829102 C401.930371,38.0913091 401.952344,38.1982417 401.952344,38.3037109 C401.952344,38.333008 401.950879,38.3593749 401.947949,38.3828125 C401.94502,38.4062501 401.94209,38.4311522 401.93916,38.4575195 C401.93623,38.4838869 401.930371,38.5087889 401.921582,38.5322266 C401.912793,38.5556642 401.902539,38.5791014 401.89082,38.6025391 L401.855664,38.6728516 C401.843945,38.6962892 401.829297,38.7197264 401.811719,38.7431641 C401.794141,38.7666017 401.775098,38.7900389 401.75459,38.8134766 C401.734082,38.8369142 401.71211,38.8574218 401.688672,38.875 C400.768745,39.6953166 399.634968,40.1054688 398.287305,40.1054688 Z M396.116406,34.796875 L400.133008,34.796875 C400.027539,33.2968675 399.371295,32.546875 398.164258,32.546875 C397.543161,32.546875 397.056838,32.7636697 396.705273,33.1972656 C396.353709,33.6308615 396.157422,34.1640593 396.116406,34.796875 Z M408.310156,38.4970703 C409.019144,38.4970703 409.56699,38.2407252 409.953711,37.7280273 C410.340432,37.2153295 410.533789,36.5019577 410.533789,35.5878906 C410.533789,34.6503859 410.341896,33.9252955 409.958105,33.4125977 C409.574315,32.8998998 409.025004,32.6435547 408.310156,32.6435547 C407.595309,32.6435547 407.045998,32.8998998 406.662207,33.4125977 C406.278416,33.9252955 406.086523,34.6503859 406.086523,35.5878906 C406.086523,36.4960983 406.279881,37.2080052 406.666602,37.7236328 C407.053322,38.2392604 407.601168,38.4970703 408.310156,38.4970703 Z M408.310156,40.1054688 C407.536715,40.1054688 406.843851,39.9838879 406.231543,39.7407227 C405.619235,39.4975574 405.125588,39.166506 404.750586,38.7475586 C404.375584,38.3286112 404.091407,37.8510769 403.898047,37.3149414 C403.704687,36.7788059 403.608008,36.2031281 403.608008,35.5878906 C403.608008,34.9785126 403.703222,34.4042996 403.893652,33.8652344 C404.084083,33.3261692 404.366795,32.8442404 404.741797,32.4194336 C405.116799,31.9946268 405.610446,31.6577161 406.222754,31.4086914 C406.835062,31.1596667 407.530856,31.0351562 408.310156,31.0351562 C409.071879,31.0351562 409.754489,31.1538074 410.358008,31.3911133 C410.961526,31.6284192 411.453709,31.955076 411.83457,32.3710938 C412.215432,32.7871115 412.506933,33.2675754 412.709082,33.8125 C412.911232,34.3574246 413.012305,34.9492156 413.012305,35.5878906 C413.012305,36.1855499 412.915626,36.7509739 412.722266,37.2841797 C412.528905,37.8173855 412.246193,38.2963846 411.874121,38.7211914 C411.502049,39.1459982 411.009866,39.4829089 410.397559,39.7319336 C409.785251,39.9809583 409.089457,40.1054688 408.310156,40.1054688 Z M417.990234,40.1054688 C419.402351,40.1054688 420.366208,39.572271 420.881836,38.5058594 L420.881836,38.7607422 C420.881836,39.1650411 420.987304,39.4726552 421.198242,39.6835938 C421.409181,39.8945323 421.705076,40 422.085938,40 C422.478518,40 422.783202,39.8945323 423,39.6835938 C423.216798,39.4726552 423.325195,39.1621114 423.325195,38.7519531 L423.325195,32.6083984 C423.325195,32.1455055 423.222657,31.7910169 423.017578,31.5449219 C422.812499,31.2988269 422.516604,31.1757812 422.129883,31.1757812 C421.731443,31.1757812 421.423829,31.2988269 421.207031,31.5449219 C420.990233,31.7910169 420.881836,32.1455055 420.881836,32.6083984 L420.881836,36.1679688 C420.881836,36.8535191 420.684084,37.4130838 420.288574,37.8466797 C419.893064,38.2802756 419.416995,38.4970703 418.860352,38.4970703 C418.403318,38.4970703 418.028322,38.3447281 417.735352,38.0400391 C417.442381,37.73535 417.295898,37.2929717 417.295898,36.7128906 L417.295898,32.6083984 C417.295898,32.1455055 417.19336,31.7910169 416.988281,31.5449219 C416.783202,31.2988269 416.490236,31.1757812 416.109375,31.1757812 C415.705076,31.1757812 415.394532,31.2988269 415.177734,31.5449219 C414.960936,31.7910169 414.852539,32.1455055 414.852539,32.6083984 L414.852539,36.7304688 C414.852539,37.8085991 415.152829,38.6406221 415.753418,39.2265625 C416.354007,39.8125029 417.099605,40.1054688 417.990234,40.1054688 Z M425.675195,39.0859375 C426.659575,39.7773472 427.834368,40.1230469 429.199609,40.1230469 C429.891019,40.1230469 430.501853,40.0219737 431.032129,39.8198242 C431.562405,39.6176748 431.985741,39.3027365 432.302148,38.875 C432.618556,38.4472635 432.776758,37.928714 432.776758,37.3193359 C432.776758,36.9384747 432.718165,36.6044936 432.600977,36.3173828 C432.483789,36.030272 432.300685,35.7827159 432.05166,35.574707 C431.802636,35.3666982 431.512599,35.1909187 431.181543,35.0473633 C430.850487,34.9038079 430.444729,34.7705084 429.964258,34.6474609 L428.663477,34.3222656 C428.229881,34.2167963 427.931056,34.1010748 427.766992,33.9750977 C427.602929,33.8491205 427.520898,33.6572279 427.520898,33.3994141 C427.520898,33.2119131 427.598534,33.0551764 427.753809,32.9291992 C427.909083,32.803222 428.093651,32.7167971 428.30752,32.6699219 C428.521388,32.6230466 428.754296,32.5996094 429.00625,32.5996094 C429.580472,32.5996094 430.27773,32.7431626 431.098047,33.0302734 C431.139063,33.0478517 431.168359,33.0595703 431.185938,33.0654297 C431.250391,33.0888673 431.313379,33.1064453 431.374902,33.1181641 C431.436426,33.1298829 431.496484,33.1357422 431.555078,33.1357422 C431.766017,33.1357422 431.935937,33.0639656 432.064844,32.9204102 C432.193751,32.7768548 432.258203,32.6083994 432.258203,32.4150391 C432.258203,32.2626946 432.215723,32.1176765 432.130762,31.9799805 C432.0458,31.8422845 431.915431,31.7324223 431.739648,31.6503906 C430.813863,31.2167947 429.861724,31 428.883203,31 C428.355857,31 427.875393,31.0556635 427.441797,31.1669922 C427.008201,31.2783209 426.633205,31.4394521 426.316797,31.6503906 C426.000389,31.8613292 425.755763,32.1264632 425.58291,32.4458008 C425.410058,32.7651383 425.323633,33.1240214 425.323633,33.5224609 C425.323633,33.7685559 425.34707,33.9912099 425.393945,34.1904297 C425.440821,34.3896494 425.500879,34.5639641 425.574121,34.7133789 C425.647364,34.8627937 425.752831,35.0019525 425.890527,35.1308594 C426.028223,35.2597663 426.167382,35.3696285 426.308008,35.4604492 C426.448634,35.55127 426.633202,35.6420894 426.861719,35.7329102 C427.090236,35.8237309 427.305565,35.899902 427.507715,35.9614258 C427.709864,36.0229495 427.966209,36.0976558 428.276758,36.1855469 L429.586328,36.5283203 C429.967189,36.6279302 430.252831,36.7597648 430.443262,36.9238281 C430.633692,37.0878914 430.728906,37.2753896 430.728906,37.4863281 C430.728906,37.6796885 430.677637,37.8481438 430.575098,37.9916992 C430.472558,38.1352546 430.333399,38.2451168 430.157617,38.3212891 C429.981835,38.3974613 429.795802,38.45166 429.599512,38.4838867 C429.403222,38.5161134 429.193751,38.5322266 428.971094,38.5322266 C428.848046,38.5322266 428.725001,38.5278321 428.601953,38.519043 C428.478906,38.5102539 428.360255,38.4941407 428.245996,38.4707031 C428.131738,38.4472655 428.0292,38.4252931 427.938379,38.4047852 C427.847558,38.3842772 427.749415,38.3535158 427.643945,38.3125 C427.538476,38.2714842 427.454981,38.2392579 427.393457,38.2158203 C427.331933,38.1923827 427.249903,38.155762 427.147363,38.105957 C427.044824,38.0561521 426.975977,38.022461 426.94082,38.0048828 C426.905664,37.9873046 426.839747,37.9506839 426.743066,37.8950195 C426.646386,37.8393552 426.592188,37.8085938 426.580469,37.8027344 C426.422265,37.7148433 426.264063,37.6708984 426.105859,37.6708984 C426.00039,37.6708984 425.897852,37.6928709 425.798242,37.7368164 C425.698632,37.7807619 425.616602,37.8408199 425.552148,37.9169922 C425.487695,37.9931644 425.436426,38.0781245 425.39834,38.171875 C425.360254,38.2656255 425.341211,38.3623042 425.341211,38.4619141 C425.341211,38.5849616 425.369043,38.7006831 425.424707,38.809082 C425.480371,38.917481 425.563867,39.0097652 425.675195,39.0859375 Z M434.660938,42.7246094 L435.592578,42.7246094 C435.709766,42.7246094 435.803515,42.6953128 435.873828,42.6367188 C435.944141,42.5781247 436.005664,42.481446 436.058398,42.3466797 L437.605273,37.9873047 C437.611133,37.9697265 437.616992,37.9462892 437.622852,37.9169922 C437.628711,37.8876952 437.631641,37.8583986 437.631641,37.8291016 C437.631641,37.6240224 437.523243,37.5126954 437.306445,37.4951172 L435.829883,37.4951172 C435.454881,37.506836 435.241016,37.6708969 435.188281,37.9873047 L434.45,42.3466797 C434.45,42.3583985 434.448535,42.3686523 434.445606,42.3774414 C434.442676,42.3862305 434.441211,42.3979491 434.441211,42.4125977 L434.441211,42.4521484 C434.441211,42.6279306 434.514452,42.71875 434.660938,42.7246094 Z M446.506445,40 C446.904885,40 447.209569,39.8828137 447.420508,39.6484375 C447.631446,39.4140613 447.736914,39.0683617 447.736914,38.6113281 L447.736914,35.1220703 C447.736914,34.741209 447.802831,34.4145521 447.934668,34.1420898 C448.066505,33.8696275 448.249608,33.6616218 448.483984,33.5180664 C448.718361,33.374511 448.968846,33.2705081 449.235449,33.2060547 C449.502052,33.1416012 449.796483,33.109375 450.11875,33.109375 C450.388283,33.109375 450.603613,33.006837 450.764746,32.8017578 C450.92588,32.5966787 451.006445,32.3579115 451.006445,32.0854492 C451.006445,31.8129869 450.92295,31.5800791 450.755957,31.3867188 C450.588964,31.1933584 450.350197,31.0966797 450.039648,31.0966797 C449.494724,31.0966797 449.01426,31.2871075 448.598242,31.6679688 C448.182225,32.04883 447.892188,32.4970677 447.728125,33.0126953 L447.736914,32.3095703 C447.742774,31.9580061 447.622658,31.6811534 447.376563,31.4790039 C447.130468,31.2768545 446.840431,31.1757812 446.506445,31.1757812 C446.178319,31.1757812 445.894142,31.2768545 445.653906,31.4790039 C445.413671,31.6811534 445.293555,31.966795 445.293555,32.3359375 L445.293555,38.5673828 C445.293555,39.0302758 445.400487,39.3847644 445.614356,39.6308594 C445.828224,39.8769544 446.125584,40 446.506445,40 Z M456.599609,40.1054688 C455.21679,40.0996093 454.099125,39.6953165 453.246582,38.8925781 C452.394039,38.0898397 451.967773,36.964851 451.967773,35.5175781 C451.967773,34.6972615 452.145018,33.9501987 452.499512,33.2763672 C452.854006,32.6025357 453.37402,32.0620138 454.05957,31.6547852 C454.745121,31.2475566 455.533199,31.0439453 456.423828,31.0439453 C457.121097,31.0439453 457.736325,31.158202 458.269531,31.3867188 C458.802737,31.6152355 459.227538,31.9287089 459.543945,32.3271484 C459.860353,32.7255879 460.09912,33.1738256 460.260254,33.671875 C460.421388,34.1699244 460.504883,34.7119111 460.510742,35.2978516 C460.510742,35.5322277 460.447755,35.7167962 460.321777,35.8515625 C460.1958,35.9863288 460.012697,36.0537109 459.772461,36.0537109 L454.411133,36.0537109 C454.487305,37.6298907 455.29882,38.4179688 456.845703,38.4179688 C457.607426,38.4179688 458.369137,38.1279326 459.130859,37.5478516 C459.236329,37.4599605 459.353515,37.4160156 459.482422,37.4160156 C459.582032,37.4160156 459.680175,37.4423825 459.776856,37.4951172 C459.873536,37.5478518 459.957031,37.615234 460.027344,37.6972656 C460.097657,37.7792973 460.154785,37.8745112 460.198731,37.9829102 C460.242676,38.0913091 460.264648,38.1982417 460.264648,38.3037109 C460.264648,38.333008 460.263184,38.3593749 460.260254,38.3828125 C460.257324,38.4062501 460.254395,38.4311522 460.251465,38.4575195 C460.248535,38.4838869 460.242676,38.5087889 460.233887,38.5322266 C460.225098,38.5556642 460.214844,38.5791014 460.203125,38.6025391 L460.167969,38.6728516 C460.15625,38.6962892 460.141602,38.7197264 460.124023,38.7431641 C460.106445,38.7666017 460.087402,38.7900389 460.066895,38.8134766 C460.046387,38.8369142 460.024414,38.8574218 460.000977,38.875 C459.08105,39.6953166 457.947272,40.1054688 456.599609,40.1054688 Z M454.428711,34.796875 L458.445313,34.796875 C458.339843,33.2968675 457.6836,32.546875 456.476563,32.546875 C455.855466,32.546875 455.369142,32.7636697 455.017578,33.1972656 C454.666014,33.6308615 454.469727,34.1640593 454.428711,34.796875 Z M464.28457,40 C464.671291,40 464.971581,39.8754895 465.185449,39.6264648 C465.399318,39.3774402 465.50625,39.0214867 465.50625,38.5585938 L465.50625,32.7050781 L466.552148,32.7050781 C467.13223,32.7050781 467.422266,32.4531275 467.422266,31.9492188 C467.422266,31.7089832 467.350489,31.5229499 467.206934,31.3911133 C467.063378,31.2592767 466.862697,31.1933594 466.604883,31.1933594 L465.50625,31.1933594 L465.50625,30.7275391 C465.50625,30.0009729 465.580956,29.5278331 465.730371,29.3081055 C465.879786,29.0883778 466.171287,28.9785156 466.604883,28.9785156 L467.246484,28.9785156 C467.492579,28.9785156 467.683007,28.8935555 467.817773,28.7236328 C467.95254,28.5537101 468.019922,28.3457044 468.019922,28.0996094 C468.019922,27.8535144 467.94961,27.6352549 467.808984,27.4448242 C467.668359,27.2543936 467.480861,27.1591797 467.246484,27.1591797 L466.209375,27.1591797 C465.160542,27.1591797 464.372464,27.4199193 463.845117,27.9414062 C463.317771,28.4628932 463.054102,29.2978458 463.054102,30.4462891 L463.054102,31.1933594 L462.22793,31.1933594 C462.034569,31.1933594 461.876368,31.2299801 461.75332,31.3032227 C461.630273,31.3764652 461.543848,31.4672846 461.494043,31.5756836 C461.444238,31.6840826 461.419336,31.808593 461.419336,31.9492188 C461.419336,32.4414087 461.712302,32.6933593 462.298242,32.7050781 L463.054102,32.7050781 L463.054102,38.5585938 C463.054102,39.0214867 463.163964,39.3774402 463.383691,39.6264648 C463.603419,39.8754895 463.903709,40 464.28457,40 Z M470.211719,40 C470.610158,40 470.920702,39.8754895 471.143359,39.6264648 C471.366017,39.3774402 471.477344,39.018557 471.477344,38.5498047 L471.477344,28.7412109 C471.477344,28.278318 471.367482,27.9223645 471.147754,27.6733398 C470.928026,27.4243152 470.618947,27.2998047 470.220508,27.2998047 C469.839647,27.2998047 469.545216,27.4243152 469.337207,27.6733398 C469.129198,27.9223645 469.025195,28.278318 469.025195,28.7412109 L469.025195,38.5498047 C469.025195,39.018557 469.127733,39.3774402 469.332813,39.6264648 C469.537892,39.8754895 469.830858,40 470.211719,40 Z M478.028516,40.1054688 C476.645696,40.0996093 475.528032,39.6953165 474.675488,38.8925781 C473.822945,38.0898397 473.39668,36.964851 473.39668,35.5175781 C473.39668,34.6972615 473.573924,33.9501987 473.928418,33.2763672 C474.282912,32.6025357 474.802926,32.0620138 475.488477,31.6547852 C476.174027,31.2475566 476.962105,31.0439453 477.852734,31.0439453 C478.550004,31.0439453 479.165232,31.158202 479.698438,31.3867188 C480.231643,31.6152355 480.656444,31.9287089 480.972852,32.3271484 C481.289259,32.7255879 481.528027,33.1738256 481.68916,33.671875 C481.850294,34.1699244 481.933789,34.7119111 481.939648,35.2978516 C481.939648,35.5322277 481.876661,35.7167962 481.750684,35.8515625 C481.624706,35.9863288 481.441603,36.0537109 481.201367,36.0537109 L475.840039,36.0537109 C475.916211,37.6298907 476.727727,38.4179688 478.274609,38.4179688 C479.036332,38.4179688 479.798043,38.1279326 480.559766,37.5478516 C480.665235,37.4599605 480.782421,37.4160156 480.911328,37.4160156 C481.010938,37.4160156 481.109082,37.4423825 481.205762,37.4951172 C481.302442,37.5478518 481.385937,37.615234 481.45625,37.6972656 C481.526563,37.7792973 481.583691,37.8745112 481.627637,37.9829102 C481.671582,38.0913091 481.693555,38.1982417 481.693555,38.3037109 C481.693555,38.333008 481.69209,38.3593749 481.68916,38.3828125 C481.68623,38.4062501 481.683301,38.4311522 481.680371,38.4575195 C481.677441,38.4838869 481.671582,38.5087889 481.662793,38.5322266 C481.654004,38.5556642 481.64375,38.5791014 481.632031,38.6025391 L481.596875,38.6728516 C481.585156,38.6962892 481.570508,38.7197264 481.55293,38.7431641 C481.535352,38.7666017 481.516309,38.7900389 481.495801,38.8134766 C481.475293,38.8369142 481.45332,38.8574218 481.429883,38.875 C480.509956,39.6953166 479.376179,40.1054688 478.028516,40.1054688 Z M475.857617,34.796875 L479.874219,34.796875 C479.76875,33.2968675 479.112506,32.546875 477.905469,32.546875 C477.284372,32.546875 476.798049,32.7636697 476.446484,33.1972656 C476.09492,33.6308615 475.898633,34.1640593 475.857617,34.796875 Z M485.836523,35.5527344 C485.836523,35.1308573 485.890722,34.7500017 485.999121,34.4101562 C486.10752,34.0703108 486.262792,33.7846691 486.464941,33.5532227 C486.667091,33.3217762 486.913182,33.1445319 487.203223,33.0214844 C487.493263,32.8984369 487.81699,32.8369141 488.174414,32.8369141 C488.666604,32.8369141 489.176365,32.9687487 489.703711,33.2324219 C489.727149,33.2441407 489.752051,33.2558593 489.778418,33.2675781 C489.804785,33.2792969 489.829687,33.2895507 489.853125,33.2983398 C489.876563,33.307129 489.901465,33.3144531 489.927832,33.3203125 C489.954199,33.3261719 489.979101,33.3320312 490.002539,33.3378906 C490.025977,33.34375 490.049414,33.3466797 490.072852,33.3466797 L490.143164,33.3466797 C490.359962,33.3466797 490.543066,33.2661141 490.692481,33.1049805 C490.841895,32.9438469 490.916602,32.7548839 490.916602,32.5380859 C490.916602,32.3974602 490.882911,32.262696 490.815527,32.1337891 C490.748144,32.0048822 490.644141,31.8876958 490.503516,31.7822266 C490.228124,31.571288 489.861916,31.3940437 489.404883,31.2504883 C488.947849,31.1069329 488.441018,31.0351562 487.884375,31.0351562 C487.017183,31.0351562 486.236429,31.234373 485.54209,31.6328125 C484.84775,32.031252 484.308693,32.5747036 483.924902,33.2631836 C483.541111,33.9516636 483.349219,34.7177692 483.349219,35.5615234 C483.349219,36.932624 483.775484,38.0327107 484.628027,38.8618164 C485.480571,39.6909221 486.548431,40.1054688 487.831641,40.1054688 C488.441019,40.1054688 488.996189,40.0322273 489.497168,39.8857422 C489.998147,39.7392571 490.380467,39.5546886 490.644141,39.3320312 C490.901954,39.1152333 491.030859,38.8544937 491.030859,38.5498047 C491.030859,38.4736324 491.02207,38.400391 491.004492,38.3300781 C490.986914,38.2597653 490.962012,38.193848 490.929785,38.1323242 C490.897558,38.0708005 490.859473,38.0136721 490.815527,37.9609375 C490.771582,37.9082029 490.721778,37.8627932 490.666113,37.824707 C490.610449,37.7866209 490.548926,37.7573243 490.481543,37.7368164 C490.41416,37.7163085 490.345313,37.7060547 490.275,37.7060547 C490.128515,37.7060547 489.979102,37.7499996 489.826758,37.8378906 C489.31113,38.1367202 488.733988,38.2861328 488.095313,38.2861328 C487.374606,38.2861328 486.817971,38.0327174 486.425391,37.5258789 C486.032811,37.0190404 485.836523,36.3613322 485.836523,35.5527344 Z M495.991211,40.0878906 L496.175781,40.0878906 C496.375001,40.0878906 496.534667,40.0864258 496.654785,40.0834961 C496.774903,40.0805664 496.919921,40.0732422 497.089844,40.0615234 C497.259767,40.0498046 497.395996,40.0307619 497.498535,40.0043945 C497.601075,39.9780272 497.710937,39.9414065 497.828125,39.8945312 C497.945313,39.847656 498.036133,39.7905277 498.100586,39.7231445 C498.165039,39.6557614 498.219238,39.5708013 498.263184,39.4682617 C498.307129,39.3657221 498.329102,39.247071 498.329102,39.1123047 C498.329102,38.8837879 498.261719,38.6845712 498.126953,38.5146484 C497.992187,38.3447257 497.807618,38.2597656 497.573242,38.2597656 L497.520508,38.2597656 L496.94043,38.2861328 L496.834961,38.2861328 C496.4541,38.2861328 496.188966,38.146974 496.039551,37.8686523 C495.890136,37.5903306 495.81543,37.1406281 495.81543,36.5195312 L495.81543,32.8193359 L497.063477,32.8193359 C497.631839,32.8193359 497.916016,32.552737 497.916016,32.0195312 C497.916016,31.4687472 497.640628,31.1933594 497.089844,31.1933594 L495.81543,31.1933594 L495.81543,29.171875 C495.81543,28.3222614 495.504886,27.8974609 494.883789,27.8974609 C494.18652,27.8974609 493.791016,28.3193317 493.697266,29.1630859 L493.459961,31.1933594 L492.607422,31.1933594 C492.326171,31.1933594 492.1167,31.2636712 491.979004,31.4042969 C491.841308,31.5449226 491.772461,31.7353504 491.772461,31.9755859 C491.772461,32.5380887 492.059567,32.8193359 492.633789,32.8193359 L493.363281,32.8193359 L493.363281,37.0908203 C493.363281,38.0927784 493.594724,38.8413061 494.057617,39.3364258 C494.52051,39.8315454 495.165035,40.0820312 495.991211,40.0878906 Z M501.188867,40 C501.587307,40 501.890526,39.8754895 502.098535,39.6264648 C502.306544,39.3774402 502.410547,39.018557 502.410547,38.5498047 L502.410547,32.6259766 C502.410547,32.1572242 502.300685,31.7983411 502.080957,31.5493164 C501.861229,31.3002917 501.55215,31.1757812 501.153711,31.1757812 C500.77285,31.1757812 500.478419,31.3002917 500.27041,31.5493164 C500.062401,31.7983411 499.958398,32.1572242 499.958398,32.6259766 L499.958398,38.5498047 C499.958398,39.0244164 500.063866,39.3847644 500.274805,39.6308594 C500.485743,39.8769544 500.790428,40 501.188867,40 Z M501.180078,29.4091797 C501.596096,29.4091797 501.931542,29.2919934 502.186426,29.0576172 C502.44131,28.823241 502.56875,28.5156269 502.56875,28.1347656 C502.56875,27.7539043 502.44131,27.4448254 502.186426,27.2075195 C501.931542,26.9702137 501.599026,26.8515625 501.188867,26.8515625 C500.77285,26.8515625 500.437404,26.9702137 500.18252,27.2075195 C499.927635,27.4448254 499.800195,27.7539043 499.800195,28.1347656 C499.800195,28.5156269 499.926171,28.823241 500.178125,29.0576172 C500.430079,29.2919934 500.76406,29.4091797 501.180078,29.4091797 Z M508.979297,38.4970703 C509.688285,38.4970703 510.236131,38.2407252 510.622852,37.7280273 C511.009572,37.2153295 511.20293,36.5019577 511.20293,35.5878906 C511.20293,34.6503859 511.011037,33.9252955 510.627246,33.4125977 C510.243455,32.8998998 509.694144,32.6435547 508.979297,32.6435547 C508.26445,32.6435547 507.715139,32.8998998 507.331348,33.4125977 C506.947557,33.9252955 506.755664,34.6503859 506.755664,35.5878906 C506.755664,36.4960983 506.949022,37.2080052 507.335742,37.7236328 C507.722463,38.2392604 508.270309,38.4970703 508.979297,38.4970703 Z M508.979297,40.1054688 C508.205856,40.1054688 507.512991,39.9838879 506.900684,39.7407227 C506.288376,39.4975574 505.794728,39.166506 505.419727,38.7475586 C505.044725,38.3286112 504.760548,37.8510769 504.567188,37.3149414 C504.373827,36.7788059 504.277148,36.2031281 504.277148,35.5878906 C504.277148,34.9785126 504.372362,34.4042996 504.562793,33.8652344 C504.753224,33.3261692 505.035936,32.8442404 505.410938,32.4194336 C505.785939,31.9946268 506.279587,31.6577161 506.891895,31.4086914 C507.504202,31.1596667 508.199996,31.0351562 508.979297,31.0351562 C509.741019,31.0351562 510.42363,31.1538074 511.027148,31.3911133 C511.630667,31.6284192 512.12285,31.955076 512.503711,32.3710938 C512.884572,32.7871115 513.176073,33.2675754 513.378223,33.8125 C513.580372,34.3574246 513.681445,34.9492156 513.681445,35.5878906 C513.681445,36.1855499 513.584767,36.7509739 513.391406,37.2841797 C513.198046,37.8173855 512.915334,38.2963846 512.543262,38.7211914 C512.17119,39.1459982 511.679007,39.4829089 511.066699,39.7319336 C510.454392,39.9809583 509.758598,40.1054688 508.979297,40.1054688 Z M516.787305,40 C517.191604,40 517.502147,39.8769544 517.718945,39.6308594 C517.935743,39.3847644 518.044141,39.0302758 518.044141,38.5673828 L518.044141,34.9726562 C518.044141,34.2871059 518.241893,33.7275412 518.637402,33.2939453 C519.032912,32.8603494 519.506052,32.6435547 520.056836,32.6435547 C520.51387,32.6435547 520.890331,32.7973617 521.186231,33.1049805 C521.48213,33.4125992 521.630078,33.8535128 521.630078,34.4277344 L521.630078,38.5673828 C521.630078,39.0302758 521.732616,39.3847644 521.937695,39.6308594 C522.142775,39.8769544 522.43574,40 522.816602,40 C523.220901,40 523.531444,39.8769544 523.748242,39.6308594 C523.96504,39.3847644 524.073438,39.0302758 524.073438,38.5673828 L524.073438,34.4101562 C524.073438,33.3261665 523.784866,32.4926787 523.207715,31.909668 C522.630564,31.3266572 521.899614,31.0351562 521.014844,31.0351562 C519.555852,31.0351562 518.562698,31.5654244 518.035352,32.6259766 L518.035352,32.4150391 C518.035352,32.0107402 517.931349,31.7031261 517.72334,31.4921875 C517.515331,31.2812489 517.2209,31.1757812 516.840039,31.1757812 C516.447459,31.1757812 516.142775,31.2812489 515.925977,31.4921875 C515.709179,31.7031261 515.600781,32.0136698 515.600781,32.4238281 L515.600781,38.5673828 C515.600781,39.0302758 515.703319,39.3847644 515.908398,39.6308594 C516.113478,39.8769544 516.406443,40 516.787305,40 Z" id="anonymous,-spontaneo" fill="#DFDBDB"></path>
            <rect id="Rectangle-4" fill="#F1F1F1" x="0" y="0" width="569" height="11.5" rx="5.75"></rect>
            <rect id="Rectangle-4-Copy" fill="#F1F1F1" x="0" y="29" width="205" height="11.5" rx="5.75"></rect>
            <rect id="Rectangle-4-Copy-2" fill="#F1F1F1" x="0" y="60" width="550" height="11.5" rx="5.75"></rect>
            <rect id="Rectangle-4-Copy-5" fill="#F1F1F1" x="0" y="173" width="509" height="11.5" rx="5.75"></rect>
            <rect id="Rectangle-4-Copy-7" fill="#F1F1F1" x="0" y="235" width="509" height="11.5" rx="5.75"></rect>
            <rect id="Rectangle-4-Copy-8" fill="#F1F1F1" x="0" y="297" width="509" height="11.5" rx="5.75"></rect>
            <rect id="Rectangle-4-Copy-3" fill="#F1F1F1" x="0" y="91" width="509" height="11.5" rx="5.75"></rect>
            <rect id="Rectangle-4-Copy-6" fill="#F1F1F1" x="0" y="204" width="534" height="11.5" rx="5.75"></rect>
            <rect id="Rectangle-4-Copy-9" fill="#F1F1F1" x="0" y="266" width="534" height="11.5" rx="5.75"></rect>
            <rect id="Rectangle-4-Copy-4" fill="#F1F1F1" x="0" y="122" width="381" height="11.5" rx="5.75"></rect>
        </g>
    </g>
</svg>