<?xml version="1.0" encoding="UTF-8"?>
<svg width="424px" height="326px" viewBox="0 0 424 326" version="1.1" xmlns="http://www.w3.org/2000/svg" xmlns:xlink="http://www.w3.org/1999/xlink">
    <!-- Generator: Sketch 44.1 (41455) - http://www.bohemiancoding.com/sketch -->
    <title>Group Copy</title>
    <desc>Created with Sketch.</desc>
    <defs></defs>
    <g id="Page-1" stroke="none" stroke-width="1" fill="none" fill-rule="evenodd">
        <g id="Group-Copy" transform="translate(211.212051, 162.738805) rotate(-180.000000) translate(-211.212051, -162.738805) translate(-0.787949, -0.261195)">
            <path d="M284.502181,324.738805 C380.749834,334.435416 423.212051,262.63628 423.212051,186.028935 C423.212051,109.421589 369.371263,24.8808105 284.502181,47.3190648 C199.6331,69.7573192 145.792311,109.421589 145.792311,186.028935 C145.792311,262.63628 188.254529,315.042193 284.502181,324.738805 Z" id="Oval-Copy" fill-opacity="0.8" fill="#ED2E2E" style="mix-blend-mode: multiply;"></path>
            <path d="M204.358701,265.41974 C307.665904,265.41974 348.618559,209.823903 343.068571,126.70987 C337.518583,43.5958362 245.994212,0.216903387 195.364369,0.216903387 C144.734525,0.216903387 69.4693375,40.5381294 65.648831,126.70987 C61.8283246,212.88161 101.051498,265.41974 204.358701,265.41974 Z" id="Oval-Copy-2" fill-opacity="0.8" fill="#36B3FF" style="mix-blend-mode: multiply;"></path>
            <path d="M142.70987,324.738805 C219.317216,324.738805 281.41974,262.63628 281.41974,186.028935 C281.41974,109.421589 213.21302,66.5266804 136.605675,66.5266804 C59.9983288,66.5266804 27.6457224,91.7890893 4,186.028935 C-19.6457224,280.26878 66.1025241,324.738805 142.70987,324.738805 Z" id="Oval" fill-opacity="0.8" fill="#FFDB36" style="mix-blend-mode: multiply;"></path>
            <path d="M119.855853,183.771413 C122.781779,183.771413 125.048435,182.98576 126.655888,181.414429 C128.263341,179.843098 129.825618,177.016552 131.342765,172.934705 L145.809771,137.877952 C146.170996,137.011011 146.351606,136.107961 146.351606,135.168775 C146.351606,133.398771 145.70141,131.917769 144.400998,130.725725 C143.100587,129.533681 141.619585,128.937668 139.957948,128.937668 C138.693659,128.937668 137.537755,129.316949 136.490201,130.075522 C135.442647,130.834096 134.629902,131.99 134.051942,133.543269 L119.855853,169.683692 L105.659765,133.543269 C105.081805,131.99 104.26906,130.834096 103.221506,130.075522 C102.173952,129.316949 101.018048,128.937668 99.7537591,128.937668 C98.0921221,128.937668 96.6111201,129.533681 95.3107085,130.725725 C94.010297,131.917769 93.360101,133.398771 93.360101,135.168775 C93.360101,136.107961 93.540711,137.011011 93.9019364,137.877952 L108.314759,172.934705 C109.831906,177.016552 111.403213,179.843098 113.028727,181.414429 C114.654241,182.98576 116.929928,183.771413 119.855853,183.771413 Z M153.686854,155.758522 C153.686854,150.773611 154.725361,146.231269 156.802407,142.13136 C158.879454,138.031452 161.976915,134.717258 166.094885,132.18868 C170.212855,129.660102 174.99902,128.395832 180.453524,128.395832 C184.643739,128.395832 188.355274,129.091181 191.588242,130.481899 C194.821209,131.872617 197.421993,133.796113 199.390672,136.252446 C201.359351,138.708779 202.849383,141.472112 203.860814,144.542528 C204.872246,147.612944 205.396015,150.936168 205.432137,154.5123 C205.432137,155.921079 205.107039,157.058922 204.456833,157.925863 C203.806628,158.792804 202.831334,159.226268 201.530922,159.226268 L167.286923,159.226268 C167.864884,169.412825 173.084513,174.506027 182.945967,174.506027 C187.425162,174.506027 192.211327,172.681866 197.304606,169.03349 C197.954811,168.527774 198.65919,168.27492 199.417764,168.27492 C200.537563,168.27492 201.530918,168.780628 202.397859,169.792059 C203.2648,170.80349 203.698264,171.941333 203.698264,173.205622 C203.698264,174.650524 203.120312,175.878672 201.96439,176.890103 C196.257029,181.694401 189.592519,184.096514 181.970663,184.096514 C173.40962,184.096514 166.555471,181.604096 161.408008,176.619186 C156.260546,171.634275 153.686854,164.68079 153.686854,155.758522 Z M167.39529,151.586389 L193.836859,151.586389 C193.547879,147.432296 192.346822,144.018767 190.233653,141.345699 C188.120485,138.672631 184.986901,137.336117 180.832809,137.336117 C176.787084,137.336117 173.617378,138.726814 171.323597,141.50825 C169.029815,144.289686 167.720393,147.649032 167.39529,151.586389 Z M223.441543,183.446312 C225.428283,183.446312 227.062803,182.787085 228.345153,181.468613 C229.627504,180.15014 230.268669,178.316948 230.268669,175.968983 L230.268669,153.049344 C230.268669,148.461781 231.587122,144.741215 234.224068,141.887535 C236.861013,139.033854 239.985566,137.607035 243.597821,137.607035 C246.595992,137.607035 249.061318,138.591359 250.993874,140.560038 C252.92643,142.528716 253.892694,145.373324 253.892694,149.093946 L253.892694,175.968983 C253.892694,178.316948 254.524829,180.15014 255.789118,181.468613 C257.053407,182.787085 258.642775,183.446312 260.55727,183.446312 C262.580132,183.446312 264.241744,182.787085 265.542156,181.468613 C266.842567,180.15014 267.492763,178.316948 267.492763,175.968983 L267.492763,149.148129 C267.492763,145.680365 266.968994,142.591934 265.92144,139.882743 C264.873887,137.173553 263.447068,134.997202 261.64094,133.353627 C259.834813,131.710051 257.78489,130.463842 255.491108,129.614962 C253.197327,128.766082 250.750061,128.341649 248.149238,128.341649 C243.922901,128.341649 240.283609,129.136333 237.231254,130.725725 C234.178899,132.315117 231.858061,134.644986 230.268669,137.715402 L230.268669,135.818978 C230.268669,133.687748 229.636534,132.035166 228.372245,130.861184 C227.107956,129.687201 225.500527,129.100218 223.54991,129.100218 C221.56317,129.100218 219.919619,129.696231 218.619207,130.888275 C217.318796,132.080319 216.6686,133.759992 216.6686,135.927345 L216.6686,175.968983 C216.6686,178.316948 217.300735,180.15014 218.565024,181.468613 C219.829313,182.787085 221.454803,183.446312 223.441543,183.446312 Z M301.811415,183.933964 L303.003453,183.933964 C304.303865,183.933964 305.351403,183.915903 306.146098,183.87978 C306.940794,183.843658 307.888997,183.780444 308.990735,183.690138 C310.092472,183.599832 310.968431,183.428252 311.618636,183.175394 C312.268842,182.922536 312.910008,182.597438 313.542152,182.20009 C314.174297,181.802742 314.634852,181.278973 314.923832,180.628768 C315.212813,179.978562 315.357301,179.22 315.357301,178.353059 C315.357301,176.980402 314.923837,175.788376 314.056896,174.776945 C313.189955,173.765514 312.01599,173.259806 310.534965,173.259806 L310.155681,173.259806 L306.308649,173.47654 L305.71263,173.47654 C303.509155,173.47654 301.97397,172.627673 301.107029,170.929914 C300.240088,169.232154 299.806624,166.649431 299.806624,163.181667 L299.806624,138.528155 L308.475991,138.528155 C310.02926,138.528155 311.203225,138.130813 311.997921,137.336117 C312.792617,136.541421 313.189959,135.457761 313.189959,134.085104 C313.189959,132.676325 312.792617,131.547513 311.997921,130.698633 C311.203225,129.849753 310.047321,129.42532 308.530174,129.42532 L299.806624,129.42532 L299.806624,115.608516 C299.806624,113.513409 299.364129,111.942102 298.479127,110.894548 C297.594125,109.846994 296.356946,109.323225 294.767554,109.323225 C292.780815,109.323225 291.218538,109.94633 290.080678,111.192557 C288.942818,112.438785 288.26553,114.037184 288.048795,115.987801 L286.423289,129.42532 L280.734017,129.42532 C279.180748,129.42532 278.006783,129.831692 277.212087,130.644449 C276.417391,131.457207 276.020049,132.531836 276.020049,133.86837 C276.020049,135.277149 276.444482,136.405962 277.293362,137.254842 C278.142242,138.103721 279.343298,138.528155 280.896568,138.528155 L286.152371,138.528155 L286.152371,166.541047 C286.152371,172.140041 287.534038,176.429528 290.297412,179.409638 C293.060787,182.389748 296.898749,183.897841 301.811415,183.933964 Z" id="vent-copy" fill="#FFFFFF" transform="translate(204.358701, 146.709870) rotate(-180.000000) translate(-204.358701, -146.709870) "></path>
        </g>
    </g>
</svg>